<?xml version="1.0" encoding="UTF-8" standalone="no"?><!DOCTYPE svg PUBLIC "-//W3C//DTD SVG 1.1//EN" "http://www.w3.org/Graphics/SVG/1.1/DTD/svg11.dtd"><!-- Generated by graphviz version 2.40.1 (20161225.0304)
 --><!-- Title: TicTacToeAI Pages: 1 --><svg xmlns="http://www.w3.org/2000/svg" xmlns:xlink="http://www.w3.org/1999/xlink" width="691pt" height="1576pt" viewBox="0.00 0.00 691.46 1575.53">
<g id="graph0" class="graph" transform="scale(1 1) rotate(0) translate(4 1571.5251)">
<title>TicTacToeAI</title>
<polygon fill="#ffffff" stroke="transparent" points="-4,4 -4,-1571.5251 687.4572,-1571.5251 687.4572,4 -4,4"/>
<!-- start -->
<g id="node1" class="node">
<title>start</title>
<ellipse fill="#b39ddb" stroke="#b39ddb" cx="478.6782" cy="-1549.5251" rx="60.3058" ry="18"/>
<text text-anchor="middle" x="478.6782" y="-1545.3251" font-family="Helvetica,sans-Serif" font-size="14.00" fill="#000000">Start Game</text>
</g>
<!-- init -->
<g id="node2" class="node">
<title>init</title>
<ellipse fill="#b39ddb" stroke="#b39ddb" cx="478.6782" cy="-1465.1095" rx="100.9508" ry="29.3315"/>
<text text-anchor="middle" x="478.6782" y="-1469.3095" font-family="Helvetica,sans-Serif" font-size="14.00" fill="#000000">Initialize Game</text>
<text text-anchor="middle" x="478.6782" y="-1452.5095" font-family="Helvetica,sans-Serif" font-size="14.00" fill="#000000">Board &amp; Player Turn</text>
</g>
<!-- start&#45;&gt;init -->
<g id="edge1" class="edge">
<title>start-&gt;init</title>
<path fill="none" stroke="#000000" d="M478.6782,-1531.2082C478.6782,-1523.4572 478.6782,-1514.1035 478.6782,-1504.9033"/>
<polygon fill="#000000" stroke="#000000" points="482.1783,-1504.6747 478.6782,-1494.6747 475.1783,-1504.6748 482.1783,-1504.6747"/>
</g>
<!-- check_empty -->
<g id="node3" class="node">
<title>check_empty</title>
<polygon fill="#f48fb1" stroke="#f48fb1" points="478.6782,-1398.6939 308.8332,-1380.6939 478.6782,-1362.6939 648.5232,-1380.6939 478.6782,-1398.6939"/>
<text text-anchor="middle" x="478.6782" y="-1376.4939" font-family="Helvetica,sans-Serif" font-size="14.00" fill="#000000">Is the chosen cell empty?</text>
</g>
<!-- init&#45;&gt;check_empty -->
<g id="edge2" class="edge">
<title>init-&gt;check_empty</title>
<path fill="none" stroke="#000000" d="M478.6782,-1435.585C478.6782,-1427.0269 478.6782,-1417.7019 478.6782,-1409.2069"/>
<polygon fill="#000000" stroke="#000000" points="482.1783,-1409.0108 478.6782,-1399.0108 475.1783,-1409.0108 482.1783,-1409.0108"/>
</g>
<!-- check_empty&#45;&gt;check_empty -->
<g id="edge4" class="edge">
<title>check_empty-&gt;check_empty</title>
<path fill="none" stroke="#f48fb1" d="M585.735,-1387.394C629.4648,-1387.814 666.3506,-1385.5806 666.3506,-1380.6939 666.3506,-1376.1889 635.0031,-1373.9389 595.8445,-1373.9439"/>
<polygon fill="#f48fb1" stroke="#f48fb1" points="595.7176,-1370.4443 585.735,-1373.9937 595.7522,-1377.4443 595.7176,-1370.4443"/>
<text text-anchor="middle" x="674.9039" y="-1376.4939" font-family="Times,serif" font-size="14.00" fill="#000000">No</text>
</g>
<!-- player_move -->
<g id="node4" class="node">
<title>player_move</title>
<ellipse fill="#ce93d8" stroke="#ce93d8" cx="414.6782" cy="-1291.8939" rx="95.6242" ry="18"/>
<text text-anchor="middle" x="414.6782" y="-1287.6939" font-family="Helvetica,sans-Serif" font-size="14.00" fill="#000000">Player Makes Move</text>
</g>
<!-- check_empty&#45;&gt;player_move -->
<g id="edge3" class="edge">
<title>check_empty-&gt;player_move</title>
<path fill="none" stroke="#000000" d="M466.3384,-1363.5723C457.0469,-1350.6804 444.145,-1332.779 433.5594,-1318.0915"/>
<polygon fill="#000000" stroke="#000000" points="436.3255,-1315.9434 427.6392,-1309.8772 430.6467,-1320.0362 436.3255,-1315.9434"/>
<text text-anchor="middle" x="463.5611" y="-1332.0939" font-family="Times,serif" font-size="14.00" fill="#000000">Yes</text>
</g>
<!-- ai_decision -->
<g id="node5" class="node">
<title>ai_decision</title>
<ellipse fill="#ce93d8" stroke="#ce93d8" cx="405.6782" cy="-1218.8939" rx="84.0242" ry="18"/>
<text text-anchor="middle" x="405.6782" y="-1214.6939" font-family="Helvetica,sans-Serif" font-size="14.00" fill="#000000">AI Decides Move</text>
</g>
<!-- player_move&#45;&gt;ai_decision -->
<g id="edge5" class="edge">
<title>player_move-&gt;ai_decision</title>
<path fill="none" stroke="#000000" d="M412.4535,-1273.8489C411.4583,-1265.7767 410.2616,-1256.0702 409.1527,-1247.0756"/>
<polygon fill="#000000" stroke="#000000" points="412.6059,-1246.4808 407.9085,-1236.9842 405.6585,-1247.3374 412.6059,-1246.4808"/>
</g>
<!-- iterative_deepening -->
<g id="node6" class="node">
<title>iterative_deepening</title>
<ellipse fill="#b39ddb" stroke="#b39ddb" cx="389.6782" cy="-1134.4782" rx="121.1716" ry="29.3315"/>
<text text-anchor="middle" x="389.6782" y="-1138.6782" font-family="Helvetica,sans-Serif" font-size="14.00" fill="#000000">Iterative Deepening</text>
<text text-anchor="middle" x="389.6782" y="-1121.8782" font-family="Helvetica,sans-Serif" font-size="14.00" fill="#000000">For Each Depth 1 to Max</text>
</g>
<!-- ai_decision&#45;&gt;iterative_deepening -->
<g id="edge6" class="edge">
<title>ai_decision-&gt;iterative_deepening</title>
<path fill="none" stroke="#000000" d="M402.2064,-1200.5769C400.7215,-1192.7426 398.9263,-1183.2709 397.1644,-1173.9753"/>
<polygon fill="#000000" stroke="#000000" points="400.583,-1173.2167 395.2819,-1164.0435 393.7055,-1174.5203 400.583,-1173.2167"/>
</g>
<!-- minimax_call -->
<g id="node7" class="node">
<title>minimax_call</title>
<ellipse fill="#ce93d8" stroke="#ce93d8" cx="380.6782" cy="-1050.0626" rx="66.0666" ry="18"/>
<text text-anchor="middle" x="380.6782" y="-1045.8626" font-family="Helvetica,sans-Serif" font-size="14.00" fill="#000000">Call Minimax</text>
</g>
<!-- iterative_deepening&#45;&gt;minimax_call -->
<g id="edge7" class="edge">
<title>iterative_deepening-&gt;minimax_call</title>
<path fill="none" stroke="#000000" d="M386.5304,-1104.9537C385.618,-1096.3956 384.6238,-1087.0706 383.7181,-1078.5756"/>
<polygon fill="#000000" stroke="#000000" points="387.1716,-1077.9521 382.6311,-1068.3795 380.211,-1078.6942 387.1716,-1077.9521"/>
</g>
<!-- depth_check -->
<g id="node8" class="node">
<title>depth_check</title>
<polygon fill="#f48fb1" stroke="#f48fb1" points="366.6782,-995.0626 221.1598,-977.0626 366.6782,-959.0626 512.1966,-977.0626 366.6782,-995.0626"/>
<text text-anchor="middle" x="366.6782" y="-972.8626" font-family="Helvetica,sans-Serif" font-size="14.00" fill="#000000">Depth = 0 or Winner?</text>
</g>
<!-- minimax_call&#45;&gt;depth_check -->
<g id="edge8" class="edge">
<title>minimax_call-&gt;depth_check</title>
<path fill="none" stroke="#000000" d="M377.2175,-1032.0176C375.6291,-1023.735 373.7106,-1013.7317 371.9483,-1004.5423"/>
<polygon fill="#000000" stroke="#000000" points="375.3717,-1003.8098 370.0508,-994.648 368.497,-1005.1283 375.3717,-1003.8098"/>
</g>
<!-- evaluate -->
<g id="node9" class="node">
<title>evaluate</title>
<ellipse fill="#ce93d8" stroke="#ce93d8" cx="115.6782" cy="-864.6626" rx="102.0531" ry="18"/>
<text text-anchor="middle" x="115.6782" y="-860.4626" font-family="Helvetica,sans-Serif" font-size="14.00" fill="#000000">Evaluate Board State</text>
</g>
<!-- depth_check&#45;&gt;evaluate -->
<g id="edge9" class="edge">
<title>depth_check-&gt;evaluate</title>
<path fill="none" stroke="#000000" d="M335.143,-962.9408C291.7261,-943.4984 213.2026,-908.3348 162.8012,-885.7647"/>
<polygon fill="#000000" stroke="#000000" points="163.9808,-882.458 153.4236,-881.5653 161.1198,-888.8467 163.9808,-882.458"/>
<text text-anchor="middle" x="296.5611" y="-928.4626" font-family="Times,serif" font-size="14.00" fill="#000000">Yes</text>
</g>
<!-- alpha_beta_check -->
<g id="node11" class="node">
<title>alpha_beta_check</title>
<polygon fill="#f48fb1" stroke="#f48fb1" points="373.6782,-906.3628 236.4405,-864.6626 373.6782,-822.9623 510.9159,-864.6626 373.6782,-906.3628"/>
<text text-anchor="middle" x="373.6782" y="-868.8626" font-family="Helvetica,sans-Serif" font-size="14.00" fill="#000000">Alpha-Beta Pruning</text>
<text text-anchor="middle" x="373.6782" y="-852.0626" font-family="Helvetica,sans-Serif" font-size="14.00" fill="#000000">Enabled?</text>
</g>
<!-- depth_check&#45;&gt;alpha_beta_check -->
<g id="edge11" class="edge">
<title>depth_check-&gt;alpha_beta_check</title>
<path fill="none" stroke="#000000" d="M367.8029,-959.0036C368.532,-947.2953 369.5216,-931.4052 370.4807,-916.0053"/>
<polygon fill="#000000" stroke="#000000" points="373.9751,-916.2032 371.1035,-906.0049 366.9886,-915.768 373.9751,-916.2032"/>
<text text-anchor="middle" x="379.2315" y="-928.4626" font-family="Times,serif" font-size="14.00" fill="#000000">No</text>
</g>
<!-- return_score -->
<g id="node10" class="node">
<title>return_score</title>
<ellipse fill="#ce93d8" stroke="#ce93d8" cx="115.6782" cy="-752.2626" rx="115.8567" ry="18"/>
<text text-anchor="middle" x="115.6782" y="-748.0626" font-family="Helvetica,sans-Serif" font-size="14.00" fill="#000000">Return Evaluation Score</text>
</g>
<!-- evaluate&#45;&gt;return_score -->
<g id="edge10" class="edge">
<title>evaluate-&gt;return_score</title>
<path fill="none" stroke="#000000" d="M115.6782,-846.6036C115.6782,-828.742 115.6782,-801.1482 115.6782,-780.4092"/>
<polygon fill="#000000" stroke="#000000" points="119.1783,-780.2767 115.6782,-770.2768 112.1783,-780.2768 119.1783,-780.2767"/>
</g>
<!-- for_each_cell -->
<g id="node12" class="node">
<title>for_each_cell</title>
<ellipse fill="#b39ddb" stroke="#b39ddb" cx="394.6782" cy="-752.2626" rx="99.6293" ry="18"/>
<text text-anchor="middle" x="394.6782" y="-748.0626" font-family="Helvetica,sans-Serif" font-size="14.00" fill="#000000">For Each Empty Cell</text>
</g>
<!-- alpha_beta_check&#45;&gt;for_each_cell -->
<g id="edge12" class="edge">
<title>alpha_beta_check-&gt;for_each_cell</title>
<path fill="none" stroke="#000000" d="M360.9891,-826.5313C358.7414,-814.0413 358.3644,-800.2906 362.9124,-788.2626 364.2593,-784.7005 366.1371,-781.2633 368.3136,-778.0197"/>
<polygon fill="#000000" stroke="#000000" points="371.2282,-779.9735 374.6125,-769.9337 365.706,-775.6717 371.2282,-779.9735"/>
<text text-anchor="middle" x="374.5611" y="-792.4626" font-family="Times,serif" font-size="14.00" fill="#000000">Yes</text>
</g>
<!-- alpha_beta_check&#45;&gt;for_each_cell -->
<g id="edge13" class="edge">
<title>alpha_beta_check-&gt;for_each_cell</title>
<path fill="none" stroke="#f48fb1" d="M381.082,-825.0345C383.8214,-810.3721 386.8696,-794.0569 389.3844,-780.5968"/>
<polygon fill="#f48fb1" stroke="#f48fb1" points="392.8746,-780.973 391.2708,-770.5003 385.9937,-779.6874 392.8746,-780.973"/>
<text text-anchor="middle" x="397.2315" y="-792.4626" font-family="Times,serif" font-size="14.00" fill="#000000">No</text>
</g>
<!-- make_move -->
<g id="node13" class="node">
<title>make_move</title>
<ellipse fill="#ce93d8" stroke="#ce93d8" cx="312.6782" cy="-679.2626" rx="93.8326" ry="18"/>
<text text-anchor="middle" x="312.6782" y="-675.0626" font-family="Helvetica,sans-Serif" font-size="14.00" fill="#000000">Make Move on Cell</text>
</g>
<!-- for_each_cell&#45;&gt;make_move -->
<g id="edge14" class="edge">
<title>for_each_cell-&gt;make_move</title>
<path fill="none" stroke="#000000" d="M374.8283,-734.5913C364.4302,-725.3345 351.5328,-713.8527 340.1868,-703.752"/>
<polygon fill="#000000" stroke="#000000" points="342.4259,-701.0593 332.6295,-697.0241 337.7713,-706.2876 342.4259,-701.0593"/>
</g>
<!-- recursive_minimax -->
<g id="node14" class="node">
<title>recursive_minimax</title>
<ellipse fill="#ce93d8" stroke="#ce93d8" cx="298.6782" cy="-606.2626" rx="111.7719" ry="18"/>
<text text-anchor="middle" x="298.6782" y="-602.0626" font-family="Helvetica,sans-Serif" font-size="14.00" fill="#000000">Recursive Minimax Call</text>
</g>
<!-- make_move&#45;&gt;recursive_minimax -->
<g id="edge15" class="edge">
<title>make_move-&gt;recursive_minimax</title>
<path fill="none" stroke="#000000" d="M309.2175,-661.2176C307.6694,-653.1454 305.8079,-643.4389 304.0829,-634.4443"/>
<polygon fill="#000000" stroke="#000000" points="307.4685,-633.5147 302.1476,-624.3529 300.5938,-634.8332 307.4685,-633.5147"/>
</g>
<!-- update_scores -->
<g id="node15" class="node">
<title>update_scores</title>
<ellipse fill="#ce93d8" stroke="#ce93d8" cx="298.6782" cy="-521.8469" rx="76.5568" ry="29.3315"/>
<text text-anchor="middle" x="298.6782" y="-526.0469" font-family="Helvetica,sans-Serif" font-size="14.00" fill="#000000">Update Scores</text>
<text text-anchor="middle" x="298.6782" y="-509.2469" font-family="Helvetica,sans-Serif" font-size="14.00" fill="#000000">Alpha &amp; Beta</text>
</g>
<!-- recursive_minimax&#45;&gt;update_scores -->
<g id="edge16" class="edge">
<title>recursive_minimax-&gt;update_scores</title>
<path fill="none" stroke="#000000" d="M298.6782,-587.9456C298.6782,-580.1947 298.6782,-570.841 298.6782,-561.6407"/>
<polygon fill="#000000" stroke="#000000" points="302.1783,-561.4121 298.6782,-551.4122 295.1783,-561.4122 302.1783,-561.4121"/>
</g>
<!-- pruning_decision -->
<g id="node16" class="node">
<title>pruning_decision</title>
<polygon fill="#f48fb1" stroke="#f48fb1" points="298.6782,-455.4313 188.6975,-437.4313 298.6782,-419.4313 408.6589,-437.4313 298.6782,-455.4313"/>
<text text-anchor="middle" x="298.6782" y="-433.2313" font-family="Helvetica,sans-Serif" font-size="14.00" fill="#000000">Alpha &gt;= Beta?</text>
</g>
<!-- update_scores&#45;&gt;pruning_decision -->
<g id="edge17" class="edge">
<title>update_scores-&gt;pruning_decision</title>
<path fill="none" stroke="#000000" d="M298.6782,-492.3224C298.6782,-483.7643 298.6782,-474.4393 298.6782,-465.9444"/>
<polygon fill="#000000" stroke="#000000" points="302.1783,-465.7482 298.6782,-455.7482 295.1783,-465.7483 302.1783,-465.7482"/>
</g>
<!-- break_loop -->
<g id="node17" class="node">
<title>break_loop</title>
<ellipse fill="#ce93d8" stroke="#ce93d8" cx="251.6782" cy="-348.6313" rx="95.0737" ry="18"/>
<text text-anchor="middle" x="251.6782" y="-344.4313" font-family="Helvetica,sans-Serif" font-size="14.00" fill="#000000">Break Loop (Prune)</text>
</g>
<!-- pruning_decision&#45;&gt;break_loop -->
<g id="edge18" class="edge">
<title>pruning_decision-&gt;break_loop</title>
<path fill="none" stroke="#000000" d="M289.8379,-420.7287C283.163,-408.1175 273.861,-390.5427 266.1122,-375.9024"/>
<polygon fill="#000000" stroke="#000000" points="269.0591,-373.9881 261.2877,-366.7871 262.8723,-377.2627 269.0591,-373.9881"/>
<text text-anchor="middle" x="290.5611" y="-388.8313" font-family="Times,serif" font-size="14.00" fill="#000000">Yes</text>
</g>
<!-- continue_loop -->
<g id="node18" class="node">
<title>continue_loop</title>
<ellipse fill="#ce93d8" stroke="#ce93d8" cx="438.6782" cy="-348.6313" rx="73.6658" ry="18"/>
<text text-anchor="middle" x="438.6782" y="-344.4313" font-family="Helvetica,sans-Serif" font-size="14.00" fill="#000000">Continue Loop</text>
</g>
<!-- pruning_decision&#45;&gt;continue_loop -->
<g id="edge19" class="edge">
<title>pruning_decision-&gt;continue_loop</title>
<path fill="none" stroke="#f48fb1" d="M321.4832,-422.9664C343.6624,-408.8985 377.6735,-387.3257 403.354,-371.0369"/>
<polygon fill="#f48fb1" stroke="#f48fb1" points="405.4871,-373.8286 412.057,-365.5167 401.7377,-367.9174 405.4871,-373.8286"/>
<text text-anchor="middle" x="390.2315" y="-388.8313" font-family="Times,serif" font-size="14.00" fill="#000000">No</text>
</g>
<!-- return_best_move -->
<g id="node19" class="node">
<title>return_best_move</title>
<ellipse fill="#ce93d8" stroke="#ce93d8" cx="278.6782" cy="-275.6313" rx="88.1155" ry="18"/>
<text text-anchor="middle" x="278.6782" y="-271.4313" font-family="Helvetica,sans-Serif" font-size="14.00" fill="#000000">Return Best Move</text>
</g>
<!-- break_loop&#45;&gt;return_best_move -->
<g id="edge21" class="edge">
<title>break_loop-&gt;return_best_move</title>
<path fill="none" stroke="#000000" d="M258.3524,-330.5863C261.4029,-322.3386 265.0844,-312.3849 268.4714,-303.2274"/>
<polygon fill="#000000" stroke="#000000" points="271.8009,-304.3148 271.9872,-293.7216 265.2356,-301.8865 271.8009,-304.3148"/>
</g>
<!-- continue_loop&#45;&gt;for_each_cell -->
<g id="edge20" class="edge">
<title>continue_loop-&gt;for_each_cell</title>
<path fill="none" stroke="#000000" d="M438.6782,-366.6592C438.6782,-384.6001 438.6782,-412.9188 438.6782,-437.4313 438.6782,-679.2626 438.6782,-679.2626 438.6782,-679.2626 438.6782,-696.621 429.4397,-713.399 419.4292,-726.4838"/>
<polygon fill="#000000" stroke="#000000" points="416.4722,-724.5694 412.8287,-734.5181 421.8811,-729.013 416.4722,-724.5694"/>
</g>
<!-- check_winner -->
<g id="node20" class="node">
<title>check_winner</title>
<polygon fill="#f48fb1" stroke="#f48fb1" points="336.6782,-220.6313 209.3534,-202.6313 336.6782,-184.6313 464.003,-202.6313 336.6782,-220.6313"/>
<text text-anchor="middle" x="336.6782" y="-198.4313" font-family="Helvetica,sans-Serif" font-size="14.00" fill="#000000">Is there a Winner?</text>
</g>
<!-- return_best_move&#45;&gt;check_winner -->
<g id="edge22" class="edge">
<title>return_best_move-&gt;check_winner</title>
<path fill="none" stroke="#000000" d="M293.0153,-257.5863C300.3534,-248.3504 309.3914,-236.975 317.3372,-226.9743"/>
<polygon fill="#000000" stroke="#000000" points="320.213,-228.981 323.6935,-218.9741 314.7323,-224.6265 320.213,-228.981"/>
</g>
<!-- display_winner -->
<g id="node21" class="node">
<title>display_winner</title>
<ellipse fill="#b39ddb" stroke="#b39ddb" cx="336.6782" cy="-102.4156" rx="86.2624" ry="29.3315"/>
<text text-anchor="middle" x="336.6782" y="-106.6156" font-family="Helvetica,sans-Serif" font-size="14.00" fill="#000000">Display Winner</text>
<text text-anchor="middle" x="336.6782" y="-89.8156" font-family="Helvetica,sans-Serif" font-size="14.00" fill="#000000">and Reset Game</text>
</g>
<!-- check_winner&#45;&gt;display_winner -->
<g id="edge23" class="edge">
<title>check_winner-&gt;display_winner</title>
<path fill="none" stroke="#000000" d="M336.6782,-184.2502C336.6782,-172.5189 336.6782,-156.8461 336.6782,-142.3572"/>
<polygon fill="#000000" stroke="#000000" points="340.1783,-142.0895 336.6782,-132.0896 333.1783,-142.0896 340.1783,-142.0895"/>
<text text-anchor="middle" x="347.5611" y="-154.0313" font-family="Times,serif" font-size="14.00" fill="#000000">Yes</text>
</g>
<!-- continue_game -->
<g id="node22" class="node">
<title>continue_game</title>
<ellipse fill="#b39ddb" stroke="#b39ddb" cx="521.6782" cy="-102.4156" rx="78.8034" ry="18"/>
<text text-anchor="middle" x="521.6782" y="-98.2156" font-family="Helvetica,sans-Serif" font-size="14.00" fill="#000000">Continue Game</text>
</g>
<!-- check_winner&#45;&gt;continue_game -->
<g id="edge24" class="edge">
<title>check_winner-&gt;continue_game</title>
<path fill="none" stroke="#f48fb1" d="M363.1842,-188.2728C394.1837,-171.4802 445.8169,-143.5102 481.6914,-124.0767"/>
<polygon fill="#f48fb1" stroke="#f48fb1" points="483.7796,-126.9261 490.9053,-119.0855 480.4454,-120.7712 483.7796,-126.9261"/>
<text text-anchor="middle" x="438.2315" y="-154.0313" font-family="Times,serif" font-size="14.00" fill="#000000">No</text>
</g>
<!-- end_game -->
<g id="node23" class="node">
<title>end_game</title>
<ellipse fill="#b39ddb" stroke="#b39ddb" cx="336.6782" cy="-18" rx="60.8718" ry="18"/>
<text text-anchor="middle" x="336.6782" y="-13.8" font-family="Helvetica,sans-Serif" font-size="14.00" fill="#000000">Game Over</text>
</g>
<!-- display_winner&#45;&gt;end_game -->
<g id="edge26" class="edge">
<title>display_winner-&gt;end_game</title>
<path fill="none" stroke="#000000" d="M336.6782,-72.8911C336.6782,-64.3331 336.6782,-55.008 336.6782,-46.5131"/>
<polygon fill="#000000" stroke="#000000" points="340.1783,-46.3169 336.6782,-36.3169 333.1783,-46.317 340.1783,-46.3169"/>
</g>
<!-- continue_game&#45;&gt;check_empty -->
<g id="edge25" class="edge">
<title>continue_game-&gt;check_empty</title>
<path fill="none" stroke="#000000" d="M527.2761,-120.6893C532.8806,-140.6289 540.6782,-173.5894 540.6782,-202.6313 540.6782,-1291.8939 540.6782,-1291.8939 540.6782,-1291.8939 540.6782,-1317.6562 522.9178,-1341.2791 506.4084,-1357.6728"/>
<polygon fill="#000000" stroke="#000000" points="503.8537,-1355.2711 498.9793,-1364.6781 508.6561,-1360.364 503.8537,-1355.2711"/>
</g>
</g>
</svg>